<?xml version="1.0" encoding="iso-8859-1"?>
<svg xmlns="http://www.w3.org/2000/svg" viewBox="0 0 512 512" style="enable-background:new 0 0 512 512" xml:space="preserve" class="svg2">
	<path d="M250.435 66.783H116.87c-9.22 0-16.696 7.475-16.696 16.696v66.783c0 9.22 7.475 16.696 16.696 16.696h133.565c9.22 0 16.696-7.475 16.696-16.696V83.478c-.001-9.22-7.476-16.695-16.696-16.695zm-16.696 66.782H133.565v-33.391h100.174v33.391z"/>
	<path d="M495.304 111.304h-77.913c-27.618 0-50.087 22.469-50.087 50.087v166.957c0 9.206-7.49 16.696-16.696 16.696h-16.696V50.087C333.913 22.469 311.444 0 283.826 0H83.478C55.86 0 33.391 22.469 33.391 50.087v428.522H16.696C7.475 478.609 0 486.084 0 495.304S7.475 512 16.696 512h333.913c9.22 0 16.696-7.475 16.696-16.696s-7.475-16.696-16.696-16.696h-16.696V378.435h16.696c27.618 0 50.087-22.469 50.087-50.087v-116.87h16.696c27.618 0 50.087-22.469 50.087-50.087v-16.696h27.826c9.22 0 16.696-7.475 16.696-16.696s-7.476-16.695-16.697-16.695zM300.522 478.609H66.783v-244.87h233.739v244.87zm0-278.261H66.783V50.087c0-9.206 7.49-16.696 16.696-16.696h200.348c9.206 0 16.696 7.49 16.696 16.696v150.261zm133.565-38.957c0 9.206-7.49 16.696-16.696 16.696h-16.696v-16.696c0-9.206 7.49-16.696 16.696-16.696h16.696v16.696z"/>
	<path d="m227.056 336.757-28.945-50.146a16.694 16.694 0 0 0-28.92 0l-28.942 50.147a50.036 50.036 0 0 0-6.685 24.981c0 27.618 22.469 50.087 50.087 50.087 27.618 0 50.087-22.469 50.087-50.087.001-11.988-3.852-19.325-6.682-24.982zm-43.404 41.678c-9.206 0-16.696-7.49-16.696-16.696 0-5.797.973-6.141 16.696-33.385 15.755 27.296 16.696 27.61 16.696 33.385 0 9.206-7.49 16.696-16.696 16.696z"/>
</svg>